<?xml version="1.0" standalone="no"?>
<!DOCTYPE svg PUBLIC "-//W3C//DTD SVG 20010904//EN"
 "http://www.w3.org/TR/2001/REC-SVG-20010904/DTD/svg10.dtd">
<svg version="1.0" xmlns="http://www.w3.org/2000/svg"
 width="285.000000pt" height="285.000000pt" viewBox="0 0 285.000000 285.000000"
 preserveAspectRatio="xMidYMid meet">
<metadata>
Created by potrace 1.14, written by Peter Selinger 2001-2017
</metadata>
<g transform="translate(0.000000,285.000000) scale(0.100000,-0.100000)"
fill="#000000" stroke="none">
<path d="M1050 1419 l0 -681 238 4 c192 4 246 8 287 22 116 40 182 121 210
253 21 96 21 719 1 814 -18 85 -45 137 -92 178 -82 72 -174 91 -447 91 l-197
0 0 -681z m425 487 c19 -8 41 -29 52 -48 17 -30 18 -66 18 -438 0 -368 -2
-408 -18 -437 -24 -45 -69 -65 -154 -71 l-73 -5 0 507 0 506 70 0 c39 0 86 -6
105 -14z"/>
</g>
</svg>
