<?xml version="1.0" standalone="no"?>
<!DOCTYPE svg PUBLIC "-//W3C//DTD SVG 20010904//EN"
 "http://www.w3.org/TR/2001/REC-SVG-20010904/DTD/svg10.dtd">
<svg version="1.0" xmlns="http://www.w3.org/2000/svg"
 width="760.000000pt" height="760.000000pt" viewBox="0 0 760.000000 760.000000"
 preserveAspectRatio="xMidYMid meet">
<metadata>
Created by potrace 1.14, written by Peter Selinger 2001-2017
</metadata>
<g transform="translate(0.000000,760.000000) scale(0.100000,-0.100000)"
fill="#000000" stroke="none">
<path d="M2639 7217 c-66 -44 -73 -91 -55 -327 15 -178 18 -203 40 -325 25
-133 26 -139 36 -170 5 -16 11 -41 14 -55 19 -102 113 -371 174 -500 9 -19 17
-37 17 -40 3 -16 109 -216 116 -218 5 -2 9 -12 9 -22 0 -10 3 -20 8 -22 9 -4
72 -107 72 -119 0 -5 4 -9 8 -9 4 0 16 -15 27 -32 20 -35 124 -180 135 -188 3
-3 13 -15 21 -27 24 -35 108 -131 188 -215 78 -82 84 -84 131 -42 8 8 45 39
83 69 37 31 67 59 67 63 0 4 -19 25 -43 48 -98 95 -219 236 -294 341 -26 38
-50 70 -53 73 -3 3 -10 14 -17 25 -7 11 -41 67 -76 125 -73 122 -154 284 -207
420 -35 87 -101 291 -114 350 -36 163 -48 231 -61 330 -14 111 -17 147 -20
262 -2 71 -9 138 -16 150 -40 76 -124 100 -190 55z"/>
<path d="M4800 7223 c-55 -29 -70 -65 -75 -189 -6 -149 -13 -242 -20 -284 -3
-19 -8 -51 -10 -70 -17 -150 -106 -476 -172 -630 -3 -8 -7 -17 -8 -20 -25 -72
-172 -361 -187 -368 -5 -2 -8 -8 -8 -13 0 -6 -21 -42 -47 -82 -191 -295 -426
-544 -708 -752 -11 -9 -33 -26 -50 -38 -37 -28 -124 -87 -130 -87 -2 0 -21
-12 -42 -26 -21 -14 -91 -52 -155 -85 -122 -61 -126 -66 -106 -119 5 -13 26
-124 32 -175 2 -11 10 -21 18 -23 19 -4 275 127 387 197 73 46 184 122 216
148 6 5 26 19 45 33 19 13 37 27 40 30 3 3 32 28 65 55 110 92 329 316 420
430 22 28 43 52 48 53 4 2 7 10 7 18 0 8 7 17 15 20 8 3 17 14 20 23 3 10 13
26 23 37 28 32 82 114 82 124 0 6 5 10 10 10 6 0 10 4 10 9 0 5 18 38 39 74
50 81 150 280 185 367 15 36 31 74 36 85 65 138 164 526 186 727 3 29 7 58 9
65 4 13 18 237 18 298 1 75 -12 113 -48 143 -42 34 -95 40 -145 15z"/>
<path d="M1916 7107 c-40 -24 -75 -60 -91 -93 -18 -38 -22 -107 -7 -144 8 -20
122 -180 179 -250 6 -8 40 -52 75 -97 147 -190 461 -591 481 -613 7 -8 32 -41
56 -73 45 -59 70 -84 52 -51 -8 16 -17 39 -26 64 -1 3 -7 18 -13 33 -7 16 -12
35 -12 43 0 8 -4 14 -8 14 -5 0 -14 18 -21 40 -6 22 -39 106 -71 187 -33 81
-60 153 -60 160 0 7 -4 13 -10 13 -5 0 -9 3 -8 8 0 4 -2 16 -7 27 -4 11 -37
92 -72 180 -35 88 -67 169 -72 180 -24 55 -42 97 -74 175 -68 165 -105 202
-210 206 -34 1 -71 -3 -81 -9z"/>
<path d="M5526 7099 c-22 -11 -45 -27 -53 -34 -16 -17 -51 -87 -88 -175 -15
-36 -33 -78 -40 -95 -7 -16 -27 -66 -45 -110 -18 -44 -36 -89 -41 -100 -38
-86 -262 -653 -262 -662 0 -7 -4 -13 -9 -13 -4 0 -8 -6 -8 -12 0 -7 -11 -40
-25 -73 -24 -59 -24 -60 -2 -34 12 14 34 41 49 60 57 74 271 346 294 374 46
57 89 112 114 145 14 19 36 48 50 64 14 17 48 60 75 96 27 36 53 67 57 68 5 2
8 10 8 17 0 7 4 15 8 17 10 4 121 150 155 205 29 46 37 118 19 164 -39 98
-166 146 -256 98z"/>
<path d="M1411 6510 c-76 -32 -105 -144 -53 -205 9 -12 53 -42 97 -69 90 -54
218 -145 223 -158 2 -4 9 -8 15 -8 7 0 27 -14 46 -30 18 -16 49 -42 69 -57 51
-41 269 -258 328 -328 239 -284 428 -622 540 -963 28 -87 74 -252 80 -291 2
-14 7 -39 11 -56 4 -16 7 -37 8 -45 1 -8 5 -31 8 -50 4 -19 10 -57 13 -85 3
-27 8 -66 11 -85 3 -19 6 -149 7 -289 l2 -254 44 -14 c25 -8 52 -16 62 -18 9
-2 44 -15 77 -28 56 -23 61 -23 66 -7 25 77 24 531 -1 695 -2 17 -6 50 -9 75
-2 25 -7 56 -10 70 -3 14 -7 36 -9 50 -12 75 -89 369 -113 430 -4 8 -7 17 -8
20 -10 40 -40 121 -74 203 -33 79 -137 286 -176 352 -56 94 -153 244 -172 265
-7 8 -34 44 -61 80 -47 64 -67 88 -172 203 -91 100 -162 169 -281 273 -87 77
-395 294 -416 294 -3 0 -14 7 -23 15 -21 19 -98 28 -129 15z"/>
<path d="M6035 6499 c-109 -57 -331 -216 -494 -354 -54 -45 -250 -245 -304
-310 -33 -39 -66 -79 -76 -90 -9 -11 -32 -42 -51 -70 -19 -27 -40 -54 -46 -60
-13 -12 -117 -174 -162 -252 -114 -199 -226 -462 -291 -682 -36 -121 -37 -127
-13 -134 9 -3 64 -23 122 -45 l105 -41 28 97 c16 53 29 102 31 107 8 35 40
122 47 129 5 6 9 16 9 24 0 18 74 187 118 272 75 143 103 189 169 290 39 58
98 140 132 183 34 43 70 87 79 99 30 39 276 283 310 308 18 14 51 42 74 62 23
21 50 41 60 44 10 3 18 9 18 14 0 5 17 19 38 31 20 13 42 27 47 32 18 15 147
97 152 97 15 0 75 54 88 79 18 35 14 99 -9 133 -20 31 -73 58 -113 58 -15 0
-46 -9 -68 -21z"/>
<path d="M3995 4735 c-27 -25 -71 -62 -97 -82 -27 -20 -48 -41 -48 -46 0 -11
39 -47 51 -47 4 0 14 -6 21 -13 19 -19 142 -97 233 -150 70 -40 271 -140 285
-142 3 -1 26 -10 51 -22 143 -65 482 -165 634 -187 22 -4 65 -11 95 -16 265
-45 635 -47 925 -4 28 4 52 8 55 9 3 1 25 5 50 9 74 13 211 45 267 62 29 9 60
17 70 19 10 2 18 4 18 5 0 1 7 3 15 5 47 9 292 105 395 154 246 117 297 158
297 236 0 106 -107 163 -208 109 -177 -94 -345 -174 -367 -174 -7 0 -17 -4
-23 -9 -22 -20 -357 -118 -464 -136 -19 -3 -48 -8 -65 -12 -137 -28 -315 -41
-535 -38 -129 2 -244 5 -256 8 -12 3 -45 8 -75 12 -90 11 -248 41 -334 65 -60
16 -78 21 -100 25 -126 27 -525 201 -650 283 -22 15 -52 33 -67 41 -15 8 -37
22 -47 33 -11 10 -24 18 -29 18 -5 0 -15 7 -22 15 -17 21 -19 20 -75 -30z"/>
<path d="M334 4645 c-35 -15 -71 -59 -78 -98 -7 -40 12 -97 42 -122 28 -24
284 -155 382 -195 30 -13 69 -29 85 -35 26 -11 199 -68 290 -96 31 -9 153 -37
190 -44 18 -3 32 -6 90 -18 11 -3 45 -8 75 -12 30 -4 66 -9 80 -11 183 -26
668 -25 790 1 14 3 45 8 70 11 25 3 54 8 65 11 11 2 33 6 49 8 15 2 36 7 46
10 20 6 46 12 95 20 17 3 46 11 65 17 38 13 44 15 61 17 6 0 8 10 4 21 -3 11
-8 39 -10 62 -2 24 -6 53 -9 65 -2 11 -8 42 -11 67 -8 53 -13 54 -95 30 -29
-9 -63 -18 -74 -20 -176 -35 -259 -48 -366 -60 -235 -26 -507 -17 -745 22 -49
9 -101 17 -115 19 -38 6 -216 53 -290 76 -132 43 -329 125 -460 192 -143 74
-177 83 -226 62z"/>
<path d="M4499 4123 c0 -16 -3 -39 -6 -53 -8 -38 -8 -434 0 -525 12 -139 28
-248 58 -380 10 -49 21 -100 24 -113 9 -51 93 -314 120 -377 7 -16 23 -55 35
-85 71 -175 265 -521 333 -595 10 -11 25 -32 33 -47 8 -16 19 -28 24 -28 6 0
10 -6 10 -12 0 -7 17 -32 38 -54 20 -23 53 -61 72 -85 65 -81 295 -303 400
-387 58 -46 113 -90 123 -98 9 -8 21 -14 26 -14 5 0 14 -7 21 -14 11 -14 151
-104 228 -148 95 -53 216 25 198 128 -9 48 -27 83 -47 89 -10 4 -19 11 -19 16
0 5 -5 9 -11 9 -19 0 -227 141 -339 230 -102 80 -349 321 -400 388 -14 19 -40
50 -57 70 -18 20 -33 40 -33 43 0 3 -9 16 -19 28 -11 12 -37 48 -58 79 -21 31
-44 63 -50 70 -7 7 -13 20 -13 28 0 8 -4 14 -8 14 -5 0 -21 24 -36 53 -15 28
-42 77 -58 107 -82 149 -218 491 -242 610 -3 14 -12 53 -20 87 -9 34 -18 77
-21 94 -3 18 -7 35 -9 38 -2 3 -7 33 -10 66 -4 33 -9 67 -11 75 -13 50 -20
185 -20 397 l0 242 -45 12 c-25 7 -78 25 -118 41 -40 15 -77 28 -83 28 -5 0
-9 -12 -10 -27z"/>
<path d="M100 3967 c-101 -62 -128 -173 -66 -268 47 -70 122 -90 266 -69 36 5
92 12 125 15 33 4 67 8 75 10 8 2 38 7 65 10 28 3 65 8 83 10 17 3 47 7 65 9
30 5 221 33 277 41 14 2 45 7 70 10 25 3 73 10 108 16 35 5 67 7 73 4 5 -4 9
-2 9 2 0 5 8 9 18 9 23 1 123 14 142 19 8 2 37 6 65 10 55 7 72 15 34 16 -13
0 -31 2 -39 4 -8 1 -35 6 -60 10 -25 3 -56 8 -70 10 -14 2 -45 7 -70 10 -47 6
-65 9 -140 20 -25 4 -56 8 -70 10 -14 2 -44 6 -68 10 -23 4 -52 8 -65 10 -28
3 -114 16 -147 21 -14 2 -62 8 -107 14 -138 17 -167 21 -193 26 -14 2 -45 6
-70 9 -25 3 -61 8 -80 11 -19 3 -71 7 -115 9 -69 3 -85 1 -115 -18z"/>
<path d="M7285 3979 c-27 -5 -70 -11 -95 -14 -50 -6 -80 -10 -160 -21 -30 -4
-66 -9 -80 -10 -14 -1 -25 -3 -25 -4 0 -1 -11 -3 -25 -5 -62 -6 -136 -17 -150
-20 -8 -3 -35 -7 -60 -9 -40 -5 -64 -8 -150 -21 -14 -2 -38 -6 -55 -9 -16 -3
-52 -8 -80 -11 -80 -10 -107 -13 -149 -20 -21 -4 -50 -8 -65 -10 -14 -2 -28
-4 -31 -5 -12 -5 -27 -7 -54 -8 -16 -1 -27 -4 -25 -6 6 -6 31 -10 174 -31 61
-8 124 -17 140 -20 17 -2 64 -9 105 -15 120 -18 133 -20 175 -25 22 -3 51 -7
65 -9 14 -2 48 -7 75 -10 28 -4 66 -9 85 -13 19 -4 46 -7 60 -8 41 -4 134 -16
150 -20 8 -2 38 -6 65 -10 28 -3 82 -9 120 -14 123 -15 177 -10 223 23 122 84
102 264 -36 323 -35 14 -108 15 -197 2z"/>
<path d="M1777 3614 c-1 -1 -51 -5 -112 -8 -111 -6 -130 -8 -220 -20 -239 -32
-574 -124 -760 -207 -22 -9 -67 -29 -100 -43 -33 -15 -67 -31 -75 -36 -8 -6
-26 -15 -40 -20 -14 -6 -32 -14 -40 -20 -8 -5 -39 -22 -69 -37 -70 -36 -104
-81 -104 -138 0 -78 64 -139 136 -131 40 5 46 8 170 75 90 48 307 141 387 166
30 9 64 20 75 25 17 8 114 34 165 45 8 1 33 8 55 13 22 6 54 13 70 16 17 2 55
9 85 15 134 25 272 35 480 35 166 0 325 -8 384 -20 33 -7 67 -12 116 -19 24
-4 47 -8 50 -10 3 -2 21 -6 40 -9 19 -3 50 -10 68 -15 17 -5 32 -7 32 -4 0 3
7 0 15 -7 8 -6 18 -10 22 -7 4 3 19 0 33 -6 14 -5 32 -11 40 -13 61 -13 252
-83 370 -136 158 -71 401 -209 448 -255 19 -18 22 -17 63 20 64 57 141 122
157 131 18 11 8 19 -128 110 -216 144 -433 250 -700 344 -47 16 -88 30 -92 31
-4 1 -13 3 -20 5 -7 2 -24 7 -38 11 -14 3 -41 11 -60 16 -19 5 -46 12 -60 15
-14 3 -34 8 -45 11 -11 4 -27 7 -35 8 -8 1 -28 4 -45 8 -42 10 -73 16 -120 22
-22 3 -53 8 -69 11 -16 4 -45 8 -65 9 -20 2 -72 6 -116 10 -77 6 -343 14 -348
9z"/>
<path d="M5548 3615 c-2 -2 -46 -5 -98 -9 -52 -3 -104 -7 -115 -9 -11 -3 -47
-8 -80 -12 -33 -4 -112 -18 -175 -31 -63 -14 -128 -27 -143 -30 -65 -12 -102
-31 -100 -50 5 -52 16 -122 26 -179 l12 -63 95 25 c52 13 106 26 120 29 14 2
36 7 50 10 41 10 55 12 111 19 30 4 57 9 60 11 3 1 39 6 80 9 41 4 92 8 114
11 47 4 336 5 380 0 17 -2 66 -6 111 -10 44 -4 87 -8 95 -10 45 -9 87 -16 109
-20 31 -5 56 -10 144 -31 38 -9 79 -19 90 -21 49 -9 273 -88 373 -130 59 -25
162 -75 229 -109 137 -72 169 -76 228 -31 63 47 65 150 6 200 -89 74 -499 252
-730 317 -25 7 -49 14 -55 15 -5 2 -21 5 -35 8 -14 3 -56 13 -95 21 -66 15
-83 18 -145 30 -14 3 -47 7 -75 10 -27 3 -68 8 -90 12 -22 3 -58 7 -80 9 -52
5 -413 12 -417 9z"/>
<path d="M4279 3277 c-158 -80 -310 -170 -317 -188 -2 -5 -8 -9 -13 -9 -9 0
-65 -36 -79 -50 -3 -3 -32 -25 -65 -50 -33 -24 -65 -49 -71 -55 -7 -5 -36 -30
-65 -55 -56 -46 -272 -259 -325 -320 -66 -77 -174 -220 -238 -315 -37 -55 -70
-105 -74 -110 -38 -55 -153 -282 -218 -430 -51 -117 -149 -431 -168 -535 -2
-14 -11 -63 -20 -110 -9 -46 -19 -107 -22 -135 -3 -27 -8 -61 -10 -75 -15 -87
-21 -328 -10 -377 8 -35 54 -80 92 -89 56 -14 154 34 154 77 0 8 3 18 6 22 3
3 7 62 9 130 2 68 6 142 9 163 3 22 8 62 11 89 8 71 13 106 20 137 3 16 7 40
9 55 9 60 77 315 95 358 5 11 19 49 32 85 12 36 27 71 32 78 5 6 6 12 3 12 -4
0 0 12 8 28 8 15 41 81 72 147 31 66 72 144 91 173 18 29 33 55 33 57 0 6 150
228 159 235 4 3 22 25 41 50 96 127 282 317 427 437 79 66 130 103 141 103 6
0 12 4 14 9 8 23 224 155 381 233 60 30 77 43 73 56 -4 14 -16 66 -21 92 -9
43 -16 82 -21 115 -3 22 -7 41 -8 43 -2 1 -77 -35 -167 -81z"/>
<path d="M2725 3081 c-128 -488 -378 -924 -735 -1281 -182 -183 -291 -271
-486 -395 -65 -41 -130 -89 -145 -105 -28 -33 -38 -102 -18 -126 6 -8 9 -14 5
-14 -17 0 42 -51 71 -61 49 -16 90 -6 161 37 35 22 71 44 80 49 29 17 147 98
152 105 3 3 21 17 40 30 118 82 384 332 475 445 22 28 45 55 51 60 43 39 247
337 305 445 13 25 27 47 32 48 4 2 7 12 7 23 0 10 3 19 8 19 8 0 32 49 32 67
0 7 4 13 9 13 7 0 15 16 25 50 1 3 9 22 19 43 9 20 24 52 32 70 16 35 85 223
90 247 2 8 14 47 25 85 35 112 34 114 -35 142 -76 32 -98 40 -108 42 -4 0 -22
7 -41 15 l-34 14 -17 -67z"/>
<path d="M3940 2662 c-52 -43 -95 -83 -95 -89 0 -6 41 -53 90 -105 85 -89 222
-253 257 -309 9 -14 23 -32 30 -40 12 -12 36 -49 83 -127 126 -211 212 -398
285 -622 30 -93 74 -265 84 -334 4 -21 8 -41 10 -45 2 -3 7 -28 10 -56 3 -27
9 -67 12 -88 8 -48 13 -125 18 -265 6 -126 16 -156 66 -190 28 -19 44 -23 83
-19 40 3 54 11 82 42 36 38 36 40 37 150 0 42 -11 231 -17 275 -2 14 -6 50 -9
80 -4 30 -9 62 -11 70 -2 8 -6 31 -9 50 -3 19 -8 46 -11 60 -3 14 -7 35 -9 48
-3 13 -7 31 -10 40 -3 9 -7 28 -10 42 -30 153 -194 607 -229 631 -5 3 -8 9 -8
13 2 9 -59 127 -83 161 -11 17 -19 30 -17 30 21 0 -231 357 -334 471 -79 88
-189 204 -194 204 -3 0 -49 -35 -101 -78z"/>
<path d="M2619 1784 c-24 -31 -54 -68 -66 -83 -12 -14 -57 -71 -100 -126 -43
-55 -83 -107 -90 -115 -7 -8 -47 -60 -90 -115 -42 -55 -80 -102 -83 -105 -19
-16 -336 -439 -357 -475 -24 -45 -32 -101 -18 -146 21 -70 101 -129 175 -129
94 0 149 49 205 182 21 51 48 116 60 143 12 28 91 221 174 430 84 209 158 394
165 410 8 17 17 41 21 54 4 13 14 40 23 60 9 20 16 38 17 41 0 3 4 11 8 18 20
30 -4 7 -44 -44z"/>
<path d="M4938 1823 c6 -2 12 -10 12 -17 0 -12 387 -983 415 -1041 8 -16 29
-64 46 -105 41 -96 63 -125 116 -151 50 -24 122 -24 167 1 88 48 122 164 75
252 -13 23 -26 45 -29 48 -3 3 -39 50 -80 105 -41 55 -77 102 -80 105 -3 3
-35 43 -70 90 -36 47 -67 87 -70 90 -3 3 -31 39 -62 80 -32 41 -68 87 -80 102
-13 14 -32 39 -43 54 -11 15 -58 75 -105 134 -47 59 -98 124 -115 145 -16 21
-35 43 -40 49 -6 6 -18 23 -28 39 -10 15 -23 27 -30 26 -9 0 -9 -2 1 -6z"/>
</g>
</svg>
