<?xml version="1.0" encoding="UTF-8"?>
<svg width="95px" height="86px" viewBox="0 0 95 86" version="1.1" xmlns="http://www.w3.org/2000/svg" xmlns:xlink="http://www.w3.org/1999/xlink">
    <!-- Generator: Sketch 61.2 (89653) - https://sketch.com -->
    <title>Fill 1</title>
    <desc>Created with Sketch.</desc>
    <g id="Page-1" stroke="none" stroke-width="1" fill="none" fill-rule="evenodd">
        <path d="M3.3903,33.11296 C3.85124,32.3239 4.8708,32.04266 5.6598,32.50358 C6.28871,32.87467 6.941,33.21452 7.5895,33.53478 C7.78091,33.62462 7.96841,33.71447 8.16762,33.80431 C8.64809,34.03478 9.12856,34.25353 9.61682,34.45275 C9.81604,34.53088 10.01526,34.62463 10.21838,34.70275 C10.74963,34.91369 11.27698,35.11291 11.81998,35.30431 C11.96061,35.35509 12.10123,35.40587 12.24186,35.45275 C13.58166,35.89416 14.94106,36.25353 16.31216,36.53085 C17.16372,36.70273 18.02306,36.85897 18.88246,36.97226 L18.92152,36.97226 C22.69102,37.46054 26.54262,37.34335 30.31952,36.60117 C30.39765,36.58945 30.46796,36.56992 30.54999,36.56211 C31.22187,36.4332 31.87809,36.27305 32.53829,36.10117 C32.61642,36.08164 32.69845,36.06211 32.77657,36.04257 C33.07735,35.96445 33.36641,35.8707 33.66719,35.79257 C33.89766,36.88237 34.07735,37.98397 34.19844,39.09337 L34.19844,39.11291 C33.9875,39.1715 33.76875,39.234 33.55782,39.2926 C33.5461,39.2926 33.53829,39.2926 33.52657,39.30431 C30.22577,40.18322 26.84687,40.63241 23.47557,40.63241 C16.71387,40.63241 9.99557,38.87071 4.006574,35.41361 C3.209704,34.92142 2.928474,33.90971 3.389384,33.11281 L3.3903,33.11296 Z M61.6093,67.38296 C61.6093,67.38296 67.4374,82.12096 68.0781,83.234962 C68.71872,84.344362 70.1367,84.723262 71.25,84.086522 C72.3594,83.445902 72.7383,82.02792 72.10156,80.91462 C71.46094,79.79352 61.60956,67.38362 61.60956,67.38362 L61.6093,67.38296 Z M22.8983,80.90296 C22.25767,82.01236 22.63658,83.434162 23.74986,84.074862 C24.85926,84.715492 26.28106,84.336582 26.92176,83.223302 C27.56238,82.1139 33.39056,67.3713 33.39056,67.3713 C33.39056,67.3713 23.53896,79.7933 22.89856,80.9023 L22.8983,80.90296 Z M92.6793,40.62196 C91.3981,40.62196 75.7183,42.94226 75.7183,42.94226 C75.7183,42.94226 91.3903,45.26256 92.6793,45.26256 C93.9605,45.26256 94.9996,44.22346 94.9996,42.94226 C94.9996,41.66106 93.9605,40.62196 92.6793,40.62196 Z M2.320301,40.62196 C1.0391,40.62196 0,41.66106 0,42.94226 C0,44.22346 1.0391,45.26256 2.320301,45.26256 C3.601501,45.26256 19.2813,42.94226 19.2813,42.94226 C19.2813,42.94226 3.601301,40.62196 2.320301,40.62196 Z M72.1013,4.98096 C72.74193,3.87156 72.36302,2.44976 71.24974,1.80906 C70.14034,1.16843 68.71854,1.54734 68.07784,2.66062 C67.43722,3.77002 61.60904,18.51262 61.60904,18.51262 C61.60904,18.51262 71.46064,6.09062 72.10104,4.98162 L72.1013,4.98096 Z M33.3903,18.50097 C33.3903,18.50097 27.5622,3.76297 26.9215,2.64896 C26.28088,1.53956 24.8629,1.16066 23.7496,1.7974 C22.6402,2.43802 22.2613,3.856 22.89804,4.9693 C23.53866,6.0904 33.39004,18.50031 33.39004,18.50031 L33.3903,18.50097 Z M33.35905,62.41097 C35.17935,59.26256 36.53095,55.87186 37.39815,52.37197 C36.36695,51.92275 35.32785,51.52041 34.26925,51.18057 C33.46847,54.52037 32.21065,57.75087 30.48015,60.75087 C27.35125,66.17277 22.83955,70.68057 17.44915,73.78987 C16.64837,74.25081 16.37885,75.27037 16.83977,76.05937 C17.14836,76.59062 17.71086,76.88749 18.28117,76.88749 C18.56242,76.88749 18.85148,76.81717 19.10929,76.66874 C25.01159,73.27034 29.94129,68.34063 33.35929,62.41073 L33.35905,62.41097 Z M17.44905,12.10197 C26.00765,17.04337 32.01905,25.30097 34.26905,34.71097 L34.26905,34.72269 C34.32764,34.99222 34.39796,35.26175 34.46046,35.53128 L34.46046,35.54299 C34.69093,36.63279 34.88233,37.73439 35.01124,38.84379 L35.01124,38.86332 C35.04249,39.13285 35.06983,39.4141 35.08937,39.68363 L35.08937,39.70317 C35.19093,40.81257 35.26125,41.93367 35.26125,43.06257 C35.26125,44.12117 35.19093,45.17197 35.08937,46.22277 C36.17917,46.55089 37.24957,46.92199 38.31987,47.35167 C38.48003,45.92977 38.58159,44.50007 38.5894,43.07047 C38.5894,41.55097 38.48784,40.03927 38.31987,38.55097 C38.28862,38.26972 38.26127,37.98066 38.21831,37.69941 C38.05815,36.57051 37.84722,35.44941 37.5894,34.34781 C37.5308,34.06656 37.46831,33.79703 37.39799,33.5275 C34.85889,23.4185 28.33938,14.5585 19.10899,9.2265 C18.30821,8.76556 17.30039,9.03509 16.83949,9.83588 C16.37855,10.62104 16.64808,11.64058 17.44887,12.10148 L17.44905,12.10197 Z M50.51905,56.23097 C49.62061,56.90285 48.74955,57.60207 47.91745,58.35207 C50.40575,60.71147 52.57765,63.42237 54.30805,66.42237 C57.43695,71.84427 59.08925,78.00037 59.08925,84.223369 C59.08925,85.145249 59.82753,85.883569 60.74945,85.883569 C61.67137,85.883569 62.4097065,85.145289 62.4097065,84.223369 C62.42137,77.41477 60.60885,70.68437 57.19085,64.75437 C55.37055,61.60207 53.10885,58.74267 50.51895,56.23097 L50.51905,56.23097 Z M33.67105,50.12157 C33.94058,50.19969 34.2023,50.28173 34.47183,50.35985 C35.53043,50.69969 36.58123,51.09813 37.61243,51.53955 C37.87415,51.64893 38.12415,51.77002 38.38196,51.89111 C39.40146,52.35986 40.41316,52.85986 41.39366,53.43021 C42.30382,53.96146 43.18276,54.55131 44.04206,55.14901 C44.87018,54.36776 45.73346,53.61781 46.63186,52.91851 C45.48346,52.06695 44.30376,51.27011 43.06156,50.54741 C41.75296,49.78569 40.40136,49.12551 39.02246,48.52791 C38.76074,48.41853 38.50293,48.29744 38.2334,48.18807 C37.1748,47.75838 36.1045,47.38729 35.0146,47.04747 C34.74507,46.96934 34.47554,46.87559 34.20601,46.80919 C24.17501,43.94979 13.23701,45.16859 4.01501,50.50059 C3.21423,50.96153 2.94471,51.98109 3.40563,52.77009 C3.86657,53.57087 4.88613,53.84039 5.67513,53.37947 C14.21813,48.44197 24.39013,47.36387 33.67113,50.12167 L33.67105,50.12157 Z M90.60905,50.49266 C84.71845,47.08246 77.98005,45.28176 71.14005,45.28176 C67.49945,45.28176 63.89005,45.81301 60.42105,46.80126 C60.54214,47.91066 60.72183,49.02006 60.9523,50.10986 C64.2414,49.12939 67.6828,48.59816 71.1433,48.59816 C77.405,48.59816 83.5653,50.24656 88.9523,53.35986 C89.75308,53.8208 90.7609,53.55127 91.2218,52.75048 C91.67883,51.97314 91.39758,50.95358 90.60852,50.49268 L90.60905,50.49266 Z M50.58905,55.15286 C51.51093,54.50442 52.44065,53.88336 53.42885,53.31306 C54.33901,52.79353 55.28825,52.32478 56.23745,51.88336 C55.97573,50.77396 55.75698,49.65286 55.59683,48.52396 C54.28823,49.09427 53.00703,49.71536 51.76873,50.42236 C50.44843,51.18408 49.19843,52.02396 47.99923,52.91066 C47.76876,53.08254 47.53829,53.23878 47.30782,53.42238 C46.40938,54.1216 45.54612,54.87158 44.71802,55.64118 C44.50708,55.83259 44.30786,56.02009 44.09693,56.2193 C36.60863,63.481 32.19893,73.5593 32.19893,84.2073 C32.19893,85.12918 32.93721,85.8675 33.85913,85.8675 C34.78105,85.8675 35.51933,85.12922 35.51933,84.2073 C35.51933,74.3284 39.66773,64.9883 46.69933,58.3283 C46.89855,58.13689 47.09777,57.94939 47.30871,57.75799 C48.13683,57.00799 49.00011,56.29709 49.89851,55.62909 C50.12898,55.48065 50.35945,55.3205 50.58992,55.15253 L50.58905,55.15286 Z M57.21015,33.51986 C58.24135,33.96908 59.28045,34.37142 60.33905,34.71906 C62.58905,25.30886 68.60075,17.03906 77.15905,12.09806 C77.95983,11.63712 78.22935,10.61756 77.76843,9.82856 C77.30749,9.0395 76.28793,8.75826 75.49893,9.21918 C66.26843,14.55118 59.74893,23.41018 57.20993,33.52018 L57.21015,33.51986 Z M77.15915,73.78186 C71.76855,70.67246 67.26075,66.16076 64.12815,60.74286 C62.39765,57.74286 61.12815,54.50456 60.33905,51.16476 C60.28046,50.89523 60.21014,50.6257 60.14764,50.35617 C59.91717,49.26637 59.73748,48.15697 59.60858,47.04757 C59.57733,46.76632 59.54999,46.48898 59.51874,46.20773 C59.41718,45.15693 59.35858,44.10613 59.34686,43.05933 C59.34686,41.93043 59.41717,40.79763 59.51874,39.68823 C58.42894,39.36011 57.34683,38.98901 56.28824,38.55933 C56.11637,40.04763 56.01871,41.54763 56.01871,43.07103 C56.01871,44.50073 56.12027,45.92263 56.28824,47.34053 C56.31949,47.62178 56.33902,47.91084 56.37808,48.19209 C56.52652,49.32099 56.74917,50.44209 57.00699,51.55149 C57.06558,51.83274 57.1359,52.10227 57.1984,52.3718 C58.07731,55.8718 59.4172,59.2624 61.2492,62.4108 C64.6711,68.3405 69.6008,73.2698 75.4992,76.6728 C75.76092,76.82124 76.04998,76.89155 76.32732,76.89155 C76.90544,76.89155 77.45622,76.59077 77.76872,76.06343 C78.22966,75.26265 77.96013,74.24313 77.15934,73.78223 L77.15915,73.78186 Z M60.94815,35.76986 C60.67862,35.69173 60.4169,35.62142 60.14737,35.53158 C59.08877,35.19174 58.03797,34.7933 57.00677,34.35188 C56.74505,34.2425 56.48724,34.12141 56.23724,34.00032 C55.2763,33.55891 54.33884,33.09016 53.41694,32.55892 C52.43647,32.00033 51.49504,31.36752 50.57714,30.71912 C49.74902,31.50037 48.88574,32.25032 47.98734,32.94962 C49.18654,33.84025 50.43654,34.68012 51.75684,35.43792 C52.99514,36.14886 54.28804,36.77772 55.59664,37.34812 C55.85836,37.4575 56.11617,37.5864 56.37789,37.69968 C57.42869,38.12937 58.50679,38.50046 59.59669,38.82858 C59.86622,38.9067 60.13575,39.00046 60.40528,39.06686 C63.87408,40.05514 67.48338,40.58636 71.12428,40.58636 C77.97588,40.58636 84.70228,38.78556 90.59328,35.37546 C91.38234,34.91452 91.66358,33.89496 91.20266,33.10596 C90.74172,32.3169 89.72216,32.03566 88.93316,32.49659 C83.54256,35.61769 77.38216,37.25829 71.12416,37.25829 C67.67106,37.27001 64.23746,36.75048 60.94816,35.76999 L60.94815,35.76986 Z M46.69815,27.54326 C39.67865,20.88306 35.51815,11.54326 35.51815,1.66026 C35.51815,0.73838 34.77987,6e-05 33.85795,6e-05 C32.93998,6e-05 32.19775,0.74225 32.19775,1.66026 C32.19775,12.30826 36.60795,22.39026 44.09575,29.64826 C44.99809,28.99201 45.86915,28.29276 46.69735,27.54276 L46.69815,27.54326 Z M44.03015,30.73076 C43.20203,31.3206 42.35045,31.89096 41.45985,32.40266 C41.4286,32.42219 41.40907,32.44172 41.38172,32.45344 C40.40125,33.02375 39.39342,33.52374 38.36222,33.99254 C38.62394,35.10194 38.84269,36.22304 39.00284,37.35194 C40.38174,36.75038 41.73334,36.09024 43.05364,35.33244 C43.05364,35.33244 43.06536,35.33244 43.06536,35.32072 C44.30366,34.60197 45.48726,33.80122 46.62396,32.96132 C46.85443,32.78944 47.09271,32.6332 47.31537,32.4496 C48.21381,31.75038 49.07707,31.0004 49.90517,30.2308 C50.11611,30.03939 50.31533,29.85189 50.52626,29.65268 C51.90516,28.31288 53.20596,26.88318 54.37786,25.35188 C54.66692,24.97297 54.93645,24.57063 55.2177,24.17998 C55.42864,23.8792 55.64739,23.59014 55.85832,23.28936 C56.32707,22.59014 56.7802,21.85966 57.19812,21.12916 C60.62002,15.19946 62.42862,8.46916 62.4169764,1.66016 C62.4169764,1.32032 62.30754,1 62.13567,0.73047 C61.83489,0.28906 61.33489,0 60.75677,0 C59.8349,0 59.09657,0.75 59.09657,1.6602 C59.10829,7.879 57.44817,14.0392 54.31537,19.4612 C53.92475,20.13308 53.51459,20.7893 53.08487,21.43 C52.82315,21.80891 52.55362,22.18 52.28409,22.5511 C52.1044,22.8011 51.93253,23.06282 51.74503,23.31282 C51.35441,23.82454 50.93644,24.32452 50.51453,24.81282 C50.43641,24.90267 50.36609,25.00423 50.28406,25.09407 C49.78406,25.66438 49.27236,26.21517 48.73326,26.75427 C48.72154,26.76599 48.72154,26.7738 48.71373,26.7738 C48.45201,27.03552 48.18248,27.2738 47.91295,27.53552 C47.71373,27.72693 47.51451,27.92614 47.30358,28.10583 C46.47545,28.85583 45.60438,29.55503 44.70198,30.22693 C44.48714,30.40271 44.26057,30.56287 44.0301,30.73084 L44.03015,30.73076 Z" id="Fill-1" fill="#000000"></path>
    </g>
</svg>