<?xml version="1.0" encoding="UTF-8"?>
<svg width="245px" height="47px" viewBox="0 0 245 47" version="1.1" xmlns="http://www.w3.org/2000/svg" xmlns:xlink="http://www.w3.org/1999/xlink">
    <!-- Generator: Sketch 61.2 (89653) - https://sketch.com -->
    <title>Demokratis</title>
    <desc>Created with Sketch.</desc>
    <g id="Page-1" stroke="none" stroke-width="1" fill="none" fill-rule="evenodd">
        <path d="M11.4375,46 C14.9958333,46 17.7948125,45.4643542 19.8344375,44.3930625 C21.8740625,43.3217708 23.3283125,41.6992292 24.1971875,39.5254375 C25.0660625,37.3516458 25.5005,34.6112917 25.5005,31.304375 L25.5005,31.304375 L25.5005,14.731875 C25.5005,11.5165417 25.0660625,8.86777083 24.1971875,6.7855625 C23.3283125,4.70335417 21.8511667,3.15854167 19.76575,2.151125 C17.6803333,1.14370833 14.803625,0.64 11.135625,0.64 L11.135625,0.64 L0.441375,0.64 L0.441375,46 L11.4375,46 Z M11.2205,40.2215 L8.676875,40.2215 L8.676875,6.52875 L11.11025,6.52875 C12.9285,6.52875 14.255,6.78775 15.08975,7.30575 C15.9245,7.82375 16.4671458,8.64697917 16.7176875,9.7754375 C16.9682292,10.9038958 17.0935,12.3839583 17.0935,14.215625 L17.0935,14.215625 L17.0935,31.545 C17.0935,33.4128333 17.0004583,34.993375 16.814375,36.286625 C16.6282917,37.579875 16.1269167,38.559 15.31025,39.224 C14.4935833,39.889 13.1303333,40.2215 11.2205,40.2215 L11.2205,40.2215 Z M40.9528633,46.50575 C44.2947799,46.50575 46.7913008,45.6253542 48.4424258,43.8645625 C50.0935508,42.1037708 50.9191133,39.58975 50.9191133,36.3225 L50.9191133,36.3225 L50.9191133,34.107875 L43.7651133,34.107875 L43.7651133,36.8195 C43.7651133,37.7481667 43.6714883,38.52225 43.4842383,39.14175 C43.2969883,39.76125 42.9989049,40.2279167 42.5899883,40.54175 C42.1810716,40.8555833 41.6444049,41.0125 40.9799883,41.0125 C40.3330716,41.0125 39.7918841,40.8598125 39.3564258,40.5544375 C38.9209674,40.2490625 38.5964883,39.7628542 38.3829883,39.0958125 C38.1694883,38.4287708 38.0627383,37.5670417 38.0627383,36.510625 L38.0627383,36.510625 L38.0627383,30.159 L50.9462383,30.159 L50.9462383,25.532875 C50.9462383,22.892125 50.6396966,20.6470208 50.0266133,18.7975625 C49.4135299,16.9481042 48.3859883,15.5405208 46.9439883,14.5748125 C45.5019883,13.6091042 43.5049466,13.12625 40.9528633,13.12625 C38.5658633,13.12625 36.5952174,13.5778958 35.0409258,14.4811875 C33.4866341,15.3844792 32.3428633,16.7109792 31.6096133,18.4606875 C30.8763633,20.2103958 30.5097383,22.3782083 30.5097383,24.964125 L30.5097383,24.964125 L30.5097383,34.667875 C30.5097383,37.198375 30.8718424,39.3478125 31.5960508,41.1161875 C32.3202591,42.8845625 33.4501758,44.2249167 34.9858008,45.13725 C36.5214258,46.0495833 38.5104466,46.50575 40.9528633,46.50575 Z M43.7651133,26.39125 L38.0627383,26.39125 L38.0627383,24.134625 C38.0627383,22.7112917 38.1560716,21.6025208 38.3427383,20.8083125 C38.5294049,20.0141042 38.8264674,19.45075 39.2339258,19.11825 C39.6413841,18.78575 40.1956966,18.6195 40.8968633,18.6195 C41.6347799,18.6195 42.2081966,18.7806458 42.6171133,19.1029375 C43.0260299,19.4252292 43.3195924,19.932875 43.4978008,20.625875 C43.6760091,21.318875 43.7651133,22.2119583 43.7651133,23.305125 L43.7651133,23.305125 L43.7651133,26.39125 Z M63.4539531,46 L63.4539531,20.057125 C64.1032031,19.467375 64.779724,19.0065417 65.4835156,18.674625 C66.1873073,18.3427083 66.8439948,18.17675 67.4535781,18.17675 C68.1967448,18.17675 68.7768698,18.4089167 69.1939531,18.87325 C69.6110365,19.3375833 69.8195781,20.1802083 69.8195781,21.401125 L69.8195781,21.401125 L69.8195781,46 L77.0418281,46 L77.0418281,20.057125 C77.6729948,19.467375 78.3498073,19.0065417 79.0722656,18.674625 C79.794724,18.3427083 80.4511198,18.17675 81.0414531,18.17675 C81.7846198,18.17675 82.3599323,18.4089167 82.7673906,18.87325 C83.174849,19.3375833 83.3785781,20.1802083 83.3785781,21.401125 L83.3785781,21.401125 L83.3785781,46 L90.6585781,46 L90.6585781,20.720375 C90.6585781,19.005375 90.3972448,17.5779583 89.8745781,16.438125 C89.3519115,15.2982917 88.6419948,14.4475 87.7448281,13.88575 C86.8476615,13.324 85.8186615,13.043125 84.6578281,13.043125 C83.2029948,13.043125 81.7846198,13.3505417 80.4027031,13.965375 C79.0207865,14.5802083 77.7222865,15.5969583 76.5072031,17.015625 C76.0580365,15.6197083 75.3574531,14.6086458 74.4054531,13.9824375 C73.4534531,13.3562292 72.3512448,13.043125 71.0988281,13.043125 C69.7367448,13.043125 68.4071823,13.3129167 67.1101406,13.8525 C65.813099,14.3920833 64.5943698,15.258625 63.4539531,16.452125 L63.4539531,16.452125 L63.4539531,13.632 L56.1468281,13.632 L56.1468281,46 L63.4539531,46 Z M106.136699,46.50575 C108.487533,46.50575 110.430908,46.0685417 111.966824,45.194125 C113.502741,44.3197083 114.651616,43.0443958 115.413449,41.3681875 C116.175283,39.6919792 116.556199,37.6597917 116.556199,35.271625 L116.556199,35.271625 L116.556199,24.360375 C116.556199,21.9722083 116.175283,19.9400208 115.413449,18.2638125 C114.651616,16.5876042 113.502741,15.3122917 111.966824,14.437875 C110.430908,13.5634583 108.487533,13.12625 106.136699,13.12625 C103.785866,13.12625 101.837824,13.5634583 100.292574,14.437875 C98.7473242,15.3122917 97.5987409,16.5876042 96.8468242,18.2638125 C96.0949076,19.9400208 95.7189492,21.9722083 95.7189492,24.360375 L95.7189492,24.360375 L95.7189492,35.271625 C95.7189492,37.6597917 96.0949076,39.6919792 96.8468242,41.3681875 C97.5987409,43.0443958 98.7473242,44.3197083 100.292574,45.194125 C101.837824,46.0685417 103.785866,46.50575 106.136699,46.50575 Z M106.165574,41.2435 C105.296991,41.2435 104.658678,40.9990833 104.250637,40.51025 C103.842595,40.0214167 103.57747,39.3612292 103.455262,38.5296875 C103.333053,37.6981458 103.271949,36.7812917 103.271949,35.779125 L103.271949,35.779125 L103.271949,23.88 C103.271949,22.85975 103.333053,21.938375 103.455262,21.115875 C103.57747,20.293375 103.842595,19.6331875 104.250637,19.1353125 C104.658678,18.6374375 105.296991,18.3885 106.165574,18.3885 C107.033574,18.3885 107.66722,18.6374375 108.066512,19.1353125 C108.465803,19.6331875 108.721741,20.293375 108.834324,21.115875 C108.946908,21.938375 109.003199,22.85975 109.003199,23.88 L109.003199,23.88 L109.003199,35.779125 C109.003199,36.7812917 108.946908,37.6981458 108.834324,38.5296875 C108.721741,39.3612292 108.465803,40.0214167 108.066512,40.51025 C107.66722,40.9990833 107.033574,41.2435 106.165574,41.2435 Z M145.93766,46 L137.96816,26.605625 L146.10391,13.632 L137.780035,13.632 L129.44916,26.67825 L129.44916,0.612875 L121.867285,0.612875 L121.867285,45.972875 L129.44916,45.972875 L129.44916,33.62575 L132.019035,30.03125 L137.893785,46 L145.93766,46 Z M156.823973,46 L156.823973,23.697125 C157.570639,22.6004583 158.360327,21.803625 159.193035,21.306625 C160.025743,20.809625 160.937639,20.561125 161.928723,20.561125 C162.506806,20.561125 163.065931,20.6264583 163.606098,20.757125 C164.146264,20.8877917 164.630723,21.0464583 165.059473,21.233125 L165.059473,21.233125 L165.059473,13.35375 C164.854723,13.2971667 164.662952,13.2640625 164.48416,13.2544375 C164.305368,13.2448125 164.102806,13.24 163.876473,13.24 C162.527223,13.24 161.29391,13.6579583 160.176535,14.493875 C159.05916,15.3297917 157.941639,16.7079167 156.823973,18.62825 L156.823973,18.62825 L156.823973,13.632 L149.213223,13.632 L149.213223,46 L156.823973,46 Z M175.099168,46.50575 C176.888835,46.50575 178.306043,45.9695208 179.350793,44.8970625 C180.395543,43.8246042 181.104585,42.6344583 181.477918,41.326625 C181.552585,41.7845417 181.669105,42.4948958 181.82748,43.4576875 C181.985855,44.4204792 182.121043,45.2679167 182.233043,46 L182.233043,46 L189.108793,46 C189.034126,45.3869167 188.950126,44.6934792 188.856793,43.9196875 C188.76346,43.1458958 188.688793,42.2730833 188.632793,41.30125 C188.576793,40.3294167 188.548793,39.252875 188.548793,38.071625 L188.548793,38.071625 L188.548793,23.114375 C188.548793,20.0227083 187.80446,17.5851042 186.315793,15.8015625 C184.827126,14.0180208 182.45821,13.12625 179.209043,13.12625 C175.67346,13.12625 173.03971,14.0140833 171.307793,15.78975 C169.575876,17.5654167 168.64371,20.32225 168.511293,24.06025 L168.511293,24.06025 L175.777293,24.342 L175.892793,22.342625 C175.912043,21.6402917 176.004793,21.0209375 176.171043,20.4845625 C176.337293,19.9481875 176.614522,19.5318333 177.00273,19.2355 C177.390939,18.9391667 177.91871,18.791 178.586043,18.791 C179.307626,18.791 179.848668,18.9575417 180.209168,19.290625 C180.569668,19.6237083 180.81496,20.10875 180.945043,20.74575 C181.075126,21.38275 181.140168,22.1620833 181.140168,23.08375 L181.140168,23.08375 L181.140168,25.870625 C179.519085,26.465625 177.929064,27.1033542 176.370105,27.7838125 C174.811147,28.4642708 173.40998,29.2756875 172.166605,30.2180625 C170.92323,31.1604375 169.931855,32.3222917 169.19248,33.703625 C168.453105,35.0849583 168.083418,36.783625 168.083418,38.799625 C168.083418,40.0689583 168.363418,41.2922083 168.923418,42.469375 C169.483418,43.6465417 170.287251,44.6135625 171.334918,45.3704375 C172.382585,46.1273125 173.637335,46.50575 175.099168,46.50575 Z M177.914043,40.833125 C177.05771,40.833125 176.396501,40.4888125 175.930418,39.8001875 C175.464335,39.1115625 175.231293,38.1716667 175.231293,36.9805 C175.231293,36.1049167 175.379751,35.322375 175.676668,34.632875 C175.973585,33.943375 176.38673,33.3141042 176.916105,32.7450625 C177.44548,32.1760208 178.072564,31.6446042 178.797355,31.1508125 C179.522147,30.6570208 180.303085,30.1680417 181.140168,29.683875 L181.140168,29.683875 L181.140168,38.694625 C180.971585,38.9559583 180.72046,39.2579792 180.386793,39.6006875 C180.053126,39.9433958 179.678043,40.2344792 179.261543,40.4739375 C178.845043,40.7133958 178.395876,40.833125 177.914043,40.833125 Z M203.48991,46.39025 C204.409827,46.39025 205.293139,46.3478125 206.139848,46.2629375 C206.986556,46.1780625 207.715577,46.08925 208.32691,45.9965 L208.32691,45.9965 L208.32691,40.155875 C207.972827,40.1932083 207.594973,40.2353542 207.193348,40.2823125 C206.791723,40.3292708 206.393452,40.35275 205.998535,40.35275 C205.015035,40.35275 204.284118,40.1159167 203.805785,39.64225 C203.327452,39.1685833 203.088285,38.3837083 203.088285,37.287625 L203.088285,37.287625 L203.088285,18.648375 L207.97866,18.648375 L207.97866,13.632 L203.088285,13.632 L203.088285,3.965875 L195.42066,3.965875 L195.42066,13.632 L192.149035,13.632 L192.149035,18.648375 L195.42066,18.648375 L195.42066,37.9395 C195.42066,39.7 195.658806,41.212 196.135098,42.4755 C196.611389,43.739 197.439868,44.7073333 198.620535,45.3805 C199.801202,46.0536667 201.424327,46.39025 203.48991,46.39025 Z M220.549293,8.4695 L220.549293,2.168625 L212.910543,2.168625 L212.910543,8.4695 L220.549293,8.4695 Z M220.549293,46 L220.549293,13.632 L212.939418,13.632 L212.939418,46 L220.549293,46 Z M235.360527,46.50575 C237.114027,46.50575 238.706236,46.1833125 240.137152,45.5384375 C241.568069,44.8935625 242.704986,43.9310625 243.547902,42.6509375 C244.390819,41.3708125 244.812277,39.8064583 244.812277,37.957875 C244.812277,36.5765417 244.55459,35.3535833 244.039215,34.289 C243.52384,33.2244167 242.867736,32.2622083 242.070902,31.402375 C241.274069,30.5425417 240.445152,29.7387083 239.584152,28.990875 L239.584152,28.990875 L235.635277,25.4025 C234.613861,24.5525833 233.837298,23.784625 233.30559,23.098625 C232.773882,22.412625 232.508027,21.751125 232.508027,21.114125 C232.508027,20.391375 232.739611,19.7852917 233.202777,19.295875 C233.665944,18.8064583 234.286611,18.56175 235.064777,18.56175 C235.827194,18.56175 236.484173,18.7998958 237.035715,19.2761875 C237.587257,19.7524792 238.041236,20.3769375 238.397652,21.1495625 C238.754069,21.9221875 239.026194,22.7623333 239.214027,23.67 L239.214027,23.67 L244.199777,21.551625 C243.743611,19.045625 242.723361,17.0148958 241.139027,15.4594375 C239.554694,13.9039792 237.455277,13.12625 234.840777,13.12625 C233.122277,13.12625 231.565361,13.4679375 230.170027,14.1513125 C228.774694,14.8346875 227.673944,15.8076875 226.867777,17.0703125 C226.061611,18.3329375 225.658527,19.8325417 225.658527,21.569125 C225.658527,23.5314583 226.098944,25.1532708 226.979777,26.4345625 C227.860611,27.7158542 229.015319,28.9669583 230.443902,30.187875 L230.443902,30.187875 L234.340277,33.50325 C235.659194,34.59525 236.586548,35.5049583 237.12234,36.232375 C237.658132,36.9597917 237.926027,37.7709167 237.926027,38.66575 C237.926027,39.4415833 237.698965,40.0555417 237.24484,40.507625 C236.790715,40.9597083 236.118861,41.18575 235.229277,41.18575 C234.059694,41.18575 233.096173,40.7205417 232.338715,39.790125 C231.581257,38.8597083 230.976194,37.522125 230.523527,35.777375 L230.523527,35.777375 L224.903402,37.9255 C225.628486,40.7278333 226.865882,42.8584583 228.61559,44.317375 C230.365298,45.7762917 232.613611,46.50575 235.360527,46.50575 Z" id="Demokratis" fill="#30343F" fill-rule="nonzero"></path>
    </g>
</svg>