<?xml version="1.0" encoding="UTF-8"?>
<svg width="270px" height="61px" viewBox="0 0 270 61" version="1.1" xmlns="http://www.w3.org/2000/svg" xmlns:xlink="http://www.w3.org/1999/xlink">
    <!-- Generator: Sketch 61.2 (89653) - https://sketch.com -->
    <title>Logo</title>
    <desc>Created with Sketch.</desc>
    <g id="Page-1" stroke="none" stroke-width="1" fill="none" fill-rule="evenodd">
        <g id="Logo" transform="translate(0.000000, -6.000000)" fill="#30343F">
            <path d="M10.996125,66.387125 C14.5544583,66.387125 17.3534375,65.8514792 19.3930625,64.7801875 C21.4326875,63.7088958 22.8869375,62.0863542 23.7558125,59.9125625 C24.6246875,57.7387708 25.059125,54.9984167 25.059125,51.6915 L25.059125,51.6915 L25.059125,35.119 C25.059125,31.9036667 24.6246875,29.2548958 23.7558125,27.1726875 C22.8869375,25.0904792 21.4097917,23.5456667 19.324375,22.53825 C17.2389583,21.5308333 14.36225,21.027125 10.69425,21.027125 L10.69425,21.027125 L0,21.027125 L0,66.387125 L10.996125,66.387125 Z M10.779125,60.608625 L8.2355,60.608625 L8.2355,26.915875 L10.668875,26.915875 C12.487125,26.915875 13.813625,27.174875 14.648375,27.692875 C15.483125,28.210875 16.0257708,29.0341042 16.2763125,30.1625625 C16.5268542,31.2910208 16.652125,32.7710833 16.652125,34.60275 L16.652125,34.60275 L16.652125,51.932125 C16.652125,53.7999583 16.5590833,55.3805 16.373,56.67375 C16.1869167,57.967 15.6855417,58.946125 14.868875,59.611125 C14.0522083,60.276125 12.6889583,60.608625 10.779125,60.608625 L10.779125,60.608625 Z M40.5114883,66.892875 C43.8534049,66.892875 46.3499258,66.0124792 48.0010508,64.2516875 C49.6521758,62.4908958 50.4777383,59.976875 50.4777383,56.709625 L50.4777383,56.709625 L50.4777383,54.495 L43.3237383,54.495 L43.3237383,57.206625 C43.3237383,58.1352917 43.2301133,58.909375 43.0428633,59.528875 C42.8556133,60.148375 42.5575299,60.6150417 42.1486133,60.928875 C41.7396966,61.2427083 41.2030299,61.399625 40.5386133,61.399625 C39.8916966,61.399625 39.3505091,61.2469375 38.9150508,60.9415625 C38.4795924,60.6361875 38.1551133,60.1499792 37.9416133,59.4829375 C37.7281133,58.8158958 37.6213633,57.9541667 37.6213633,56.89775 L37.6213633,56.89775 L37.6213633,50.546125 L50.5048633,50.546125 L50.5048633,45.92 C50.5048633,43.27925 50.1983216,41.0341458 49.5852383,39.1846875 C48.9721549,37.3352292 47.9446133,35.9276458 46.5026133,34.9619375 C45.0606133,33.9962292 43.0635716,33.513375 40.5114883,33.513375 C38.1244883,33.513375 36.1538424,33.9650208 34.5995508,34.8683125 C33.0452591,35.7716042 31.9014883,37.0981042 31.1682383,38.8478125 C30.4349883,40.5975208 30.0683633,42.7653333 30.0683633,45.35125 L30.0683633,45.35125 L30.0683633,55.055 C30.0683633,57.5855 30.4304674,59.7349375 31.1546758,61.5033125 C31.8788841,63.2716875 33.0088008,64.6120417 34.5444258,65.524375 C36.0800508,66.4367083 38.0690716,66.892875 40.5114883,66.892875 Z M43.3237383,46.778375 L37.6213633,46.778375 L37.6213633,44.52175 C37.6213633,43.0984167 37.7146966,41.9896458 37.9013633,41.1954375 C38.0880299,40.4012292 38.3850924,39.837875 38.7925508,39.505375 C39.2000091,39.172875 39.7543216,39.006625 40.4554883,39.006625 C41.1934049,39.006625 41.7668216,39.1677708 42.1757383,39.4900625 C42.5846549,39.8123542 42.8782174,40.32 43.0564258,41.013 C43.2346341,41.706 43.3237383,42.5990833 43.3237383,43.69225 L43.3237383,43.69225 L43.3237383,46.778375 Z M63.0125781,66.387125 L63.0125781,40.44425 C63.6618281,39.8545 64.338349,39.3936667 65.0421406,39.06175 C65.7459323,38.7298333 66.4026198,38.563875 67.0122031,38.563875 C67.7553698,38.563875 68.3354948,38.7960417 68.7525781,39.260375 C69.1696615,39.7247083 69.3782031,40.5673333 69.3782031,41.78825 L69.3782031,41.78825 L69.3782031,66.387125 L76.6004531,66.387125 L76.6004531,40.44425 C77.2316198,39.8545 77.9084323,39.3936667 78.6308906,39.06175 C79.353349,38.7298333 80.0097448,38.563875 80.6000781,38.563875 C81.3432448,38.563875 81.9185573,38.7960417 82.3260156,39.260375 C82.733474,39.7247083 82.9372031,40.5673333 82.9372031,41.78825 L82.9372031,41.78825 L82.9372031,66.387125 L90.2172031,66.387125 L90.2172031,41.1075 C90.2172031,39.3925 89.9558698,37.9650833 89.4332031,36.82525 C88.9105365,35.6854167 88.2006198,34.834625 87.3034531,34.272875 C86.4062865,33.711125 85.3772865,33.43025 84.2164531,33.43025 C82.7616198,33.43025 81.3432448,33.7376667 79.9613281,34.3525 C78.5794115,34.9673333 77.2809115,35.9840833 76.0658281,37.40275 C75.6166615,36.0068333 74.9160781,34.9957708 73.9640781,34.3695625 C73.0120781,33.7433542 71.9098698,33.43025 70.6574531,33.43025 C69.2953698,33.43025 67.9658073,33.7000417 66.6687656,34.239625 C65.371724,34.7792083 64.1529948,35.64575 63.0125781,36.83925 L63.0125781,36.83925 L63.0125781,34.019125 L55.7054531,34.019125 L55.7054531,66.387125 L63.0125781,66.387125 Z M105.695324,66.892875 C108.046158,66.892875 109.989533,66.4556667 111.525449,65.58125 C113.061366,64.7068333 114.210241,63.4315208 114.972074,61.7553125 C115.733908,60.0791042 116.114824,58.0469167 116.114824,55.65875 L116.114824,55.65875 L116.114824,44.7475 C116.114824,42.3593333 115.733908,40.3271458 114.972074,38.6509375 C114.210241,36.9747292 113.061366,35.6994167 111.525449,34.825 C109.989533,33.9505833 108.046158,33.513375 105.695324,33.513375 C103.344491,33.513375 101.396449,33.9505833 99.8511992,34.825 C98.3059492,35.6994167 97.1573659,36.9747292 96.4054492,38.6509375 C95.6535326,40.3271458 95.2775742,42.3593333 95.2775742,44.7475 L95.2775742,44.7475 L95.2775742,55.65875 C95.2775742,58.0469167 95.6535326,60.0791042 96.4054492,61.7553125 C97.1573659,63.4315208 98.3059492,64.7068333 99.8511992,65.58125 C101.396449,66.4556667 103.344491,66.892875 105.695324,66.892875 Z M105.724199,61.630625 C104.855616,61.630625 104.217303,61.3862083 103.809262,60.897375 C103.40122,60.4085417 103.136095,59.7483542 103.013887,58.9168125 C102.891678,58.0852708 102.830574,57.1684167 102.830574,56.16625 L102.830574,56.16625 L102.830574,44.267125 C102.830574,43.246875 102.891678,42.3255 103.013887,41.503 C103.136095,40.6805 103.40122,40.0203125 103.809262,39.5224375 C104.217303,39.0245625 104.855616,38.775625 105.724199,38.775625 C106.592199,38.775625 107.225845,39.0245625 107.625137,39.5224375 C108.024428,40.0203125 108.280366,40.6805 108.392949,41.503 C108.505533,42.3255 108.561824,43.246875 108.561824,44.267125 L108.561824,44.267125 L108.561824,56.16625 C108.561824,57.1684167 108.505533,58.0852708 108.392949,58.9168125 C108.280366,59.7483542 108.024428,60.4085417 107.625137,60.897375 C107.225845,61.3862083 106.592199,61.630625 105.724199,61.630625 Z M145.496285,66.387125 L137.526785,46.99275 L145.662535,34.019125 L137.33866,34.019125 L129.007785,47.065375 L129.007785,21 L121.42591,21 L121.42591,66.36 L129.007785,66.36 L129.007785,54.012875 L131.57766,50.418375 L137.45241,66.387125 L145.496285,66.387125 Z M156.382598,66.387125 L156.382598,44.08425 C157.129264,42.9875833 157.918952,42.19075 158.75166,41.69375 C159.584368,41.19675 160.496264,40.94825 161.487348,40.94825 C162.065431,40.94825 162.624556,41.0135833 163.164723,41.14425 C163.704889,41.2749167 164.189348,41.4335833 164.618098,41.62025 L164.618098,41.62025 L164.618098,33.740875 C164.413348,33.6842917 164.221577,33.6511875 164.042785,33.6415625 C163.863993,33.6319375 163.661431,33.627125 163.435098,33.627125 C162.085848,33.627125 160.852535,34.0450833 159.73516,34.881 C158.617785,35.7169167 157.500264,37.0950417 156.382598,39.015375 L156.382598,39.015375 L156.382598,34.019125 L148.771848,34.019125 L148.771848,66.387125 L156.382598,66.387125 Z M174.657793,66.892875 C176.44746,66.892875 177.864668,66.3566458 178.909418,65.2841875 C179.954168,64.2117292 180.66321,63.0215833 181.036543,61.71375 C181.11121,62.1716667 181.22773,62.8820208 181.386105,63.8448125 C181.54448,64.8076042 181.679668,65.6550417 181.791668,66.387125 L181.791668,66.387125 L188.667418,66.387125 C188.592751,65.7740417 188.508751,65.0806042 188.415418,64.3068125 C188.322085,63.5330208 188.247418,62.6602083 188.191418,61.688375 C188.135418,60.7165417 188.107418,59.64 188.107418,58.45875 L188.107418,58.45875 L188.107418,43.5015 C188.107418,40.4098333 187.363085,37.9722292 185.874418,36.1886875 C184.385751,34.4051458 182.016835,33.513375 178.767668,33.513375 C175.232085,33.513375 172.598335,34.4012083 170.866418,36.176875 C169.134501,37.9525417 168.202335,40.709375 168.069918,44.447375 L168.069918,44.447375 L175.335918,44.729125 L175.451418,42.72975 C175.470668,42.0274167 175.563418,41.4080625 175.729668,40.8716875 C175.895918,40.3353125 176.173147,39.9189583 176.561355,39.622625 C176.949564,39.3262917 177.477335,39.178125 178.144668,39.178125 C178.866251,39.178125 179.407293,39.3446667 179.767793,39.67775 C180.128293,40.0108333 180.373585,40.495875 180.503668,41.132875 C180.633751,41.769875 180.698793,42.5492083 180.698793,43.470875 L180.698793,43.470875 L180.698793,46.25775 C179.07771,46.85275 177.487689,47.4904792 175.92873,48.1709375 C174.369772,48.8513958 172.968605,49.6628125 171.72523,50.6051875 C170.481855,51.5475625 169.49048,52.7094167 168.751105,54.09075 C168.01173,55.4720833 167.642043,57.17075 167.642043,59.18675 C167.642043,60.4560833 167.922043,61.6793333 168.482043,62.8565 C169.042043,64.0336667 169.845876,65.0006875 170.893543,65.7575625 C171.94121,66.5144375 173.19596,66.892875 174.657793,66.892875 Z M177.472668,61.22025 C176.616335,61.22025 175.955126,60.8759375 175.489043,60.1873125 C175.02296,59.4986875 174.789918,58.5587917 174.789918,57.367625 C174.789918,56.4920417 174.938376,55.7095 175.235293,55.02 C175.53221,54.3305 175.945355,53.7012292 176.47473,53.1321875 C177.004105,52.5631458 177.631189,52.0317292 178.35598,51.5379375 C179.080772,51.0441458 179.86171,50.5551667 180.698793,50.071 L180.698793,50.071 L180.698793,59.08175 C180.53021,59.3430833 180.279085,59.6451042 179.945418,59.9878125 C179.611751,60.3305208 179.236668,60.6216042 178.820168,60.8610625 C178.403668,61.1005208 177.954501,61.22025 177.472668,61.22025 Z M203.048535,66.777375 C203.968452,66.777375 204.851764,66.7349375 205.698473,66.6500625 C206.545181,66.5651875 207.274202,66.476375 207.885535,66.383625 L207.885535,66.383625 L207.885535,60.543 C207.531452,60.5803333 207.153598,60.6224792 206.751973,60.6694375 C206.350348,60.7163958 205.952077,60.739875 205.55716,60.739875 C204.57366,60.739875 203.842743,60.5030417 203.36441,60.029375 C202.886077,59.5557083 202.64691,58.7708333 202.64691,57.67475 L202.64691,57.67475 L202.64691,39.0355 L207.537285,39.0355 L207.537285,34.019125 L202.64691,34.019125 L202.64691,24.353 L194.979285,24.353 L194.979285,34.019125 L191.70766,34.019125 L191.70766,39.0355 L194.979285,39.0355 L194.979285,58.326625 C194.979285,60.087125 195.217431,61.599125 195.693723,62.862625 C196.170014,64.126125 196.998493,65.0944583 198.17916,65.767625 C199.359827,66.4407917 200.982952,66.777375 203.048535,66.777375 Z M220.107918,28.856625 L220.107918,22.55575 L212.469168,22.55575 L212.469168,28.856625 L220.107918,28.856625 Z M220.107918,66.387125 L220.107918,34.019125 L212.498043,34.019125 L212.498043,66.387125 L220.107918,66.387125 Z M234.919152,66.892875 C236.672652,66.892875 238.264861,66.5704375 239.695777,65.9255625 C241.126694,65.2806875 242.263611,64.3181875 243.106527,63.0380625 C243.949444,61.7579375 244.370902,60.1935833 244.370902,58.345 C244.370902,56.9636667 244.113215,55.7407083 243.59784,54.676125 C243.082465,53.6115417 242.426361,52.6493333 241.629527,51.7895 C240.832694,50.9296667 240.003777,50.1258333 239.142777,49.378 L239.142777,49.378 L235.193902,45.789625 C234.172486,44.9397083 233.395923,44.17175 232.864215,43.48575 C232.332507,42.79975 232.066652,42.13825 232.066652,41.50125 C232.066652,40.7785 232.298236,40.1724167 232.761402,39.683 C233.224569,39.1935833 233.845236,38.948875 234.623402,38.948875 C235.385819,38.948875 236.042798,39.1870208 236.59434,39.6633125 C237.145882,40.1396042 237.599861,40.7640625 237.956277,41.5366875 C238.312694,42.3093125 238.584819,43.1494583 238.772652,44.057125 L238.772652,44.057125 L243.758402,41.93875 C243.302236,39.43275 242.281986,37.4020208 240.697652,35.8465625 C239.113319,34.2911042 237.013902,33.513375 234.399402,33.513375 C232.680902,33.513375 231.123986,33.8550625 229.728652,34.5384375 C228.333319,35.2218125 227.232569,36.1948125 226.426402,37.4574375 C225.620236,38.7200625 225.217152,40.2196667 225.217152,41.95625 C225.217152,43.9185833 225.657569,45.5403958 226.538402,46.8216875 C227.419236,48.1029792 228.573944,49.3540833 230.002527,50.575 L230.002527,50.575 L233.898902,53.890375 C235.217819,54.982375 236.145173,55.8920833 236.680965,56.6195 C237.216757,57.3469167 237.484652,58.1580417 237.484652,59.052875 C237.484652,59.8287083 237.25759,60.4426667 236.803465,60.89475 C236.34934,61.3468333 235.677486,61.572875 234.787902,61.572875 C233.618319,61.572875 232.654798,61.1076667 231.89734,60.17725 C231.139882,59.2468333 230.534819,57.90925 230.082152,56.1645 L230.082152,56.1645 L224.462027,58.312625 C225.187111,61.1149583 226.424507,63.2455833 228.174215,64.7045 C229.923923,66.1634167 232.172236,66.892875 234.919152,66.892875 Z" id="Demokratis" fill-rule="nonzero"></path>
            <text id="Alpha" font-family="Oswald-Regular_Medium, Oswald" font-size="18" font-weight="400" fill-opacity="0.380845717">
                <tspan x="231" y="21">Alpha</tspan>
            </text>
        </g>
    </g>
</svg>